<svg width="52" height="50" viewBox="0 0 52 50" fill="none" xmlns="http://www.w3.org/2000/svg">
<path fill-rule="evenodd" clip-rule="evenodd" d="M9.97692 8.17557C9.15459 4.24003 12.4439 0.501266 16.5556 0.501266C20.256 0.501266 23.3398 3.45292 23.3398 6.9949V14.866C24.3677 14.866 25.19 14.866 26.2179 14.866C27.0403 14.866 28.0682 14.866 28.8905 14.866V6.9949C28.8905 3.45292 31.9742 0.501266 35.6747 0.501266C39.7864 0.501266 43.0757 4.24003 42.2534 8.17557L40.4031 17.4241C46.5706 19.9822 51.299 24.508 51.299 30.2146V33.5598C51.299 38.2824 48.0097 42.218 43.4869 44.7761C38.964 47.531 32.7966 49.1052 26.0123 49.1052C19.2281 49.1052 13.0607 47.531 8.53784 44.7761C4.01503 42.218 0.725708 38.2824 0.725708 33.5598V30.2146C0.725708 24.508 5.4541 19.9822 11.6216 17.4241L9.97692 8.17557ZM38.1417 18.8015L40.1975 7.97879C40.8143 5.22391 38.5529 2.66581 35.6747 2.66581C33.0021 2.66581 30.9463 4.63359 30.9463 7.19169V17.2273C30.3296 17.2273 29.5072 17.0305 28.8905 17.0305C28.0682 17.0305 27.0403 17.0305 26.2179 17.0305C25.19 17.0305 24.3677 17.0305 23.3398 17.2273C22.723 17.2273 21.9007 17.4241 21.284 17.4241V7.38846C21.284 4.83036 19.2281 2.86259 16.5556 2.86259C13.6774 2.86259 11.416 5.42069 12.0327 8.17557L14.0886 19.1951C7.50993 21.5564 2.98712 25.8855 2.98712 30.8049V34.1501C2.98712 41.6276 13.2662 47.7277 26.0123 47.7277C38.7585 47.7277 49.0376 41.6276 49.0376 34.1501V30.8049C49.2432 25.4919 44.7203 21.1628 38.1417 18.8015Z" fill="#633001"/>
<path d="M49.2431 33.7566C49.2431 41.2341 38.964 47.3342 26.2179 47.3342C13.4718 47.3342 3.19269 41.2341 3.19269 33.7566V30.4114H49.4487V33.7566H49.2431Z" fill="#FEDC90"/>
<path fill-rule="evenodd" clip-rule="evenodd" d="M12.0327 7.78202C11.416 5.02714 13.6774 2.46904 16.5555 2.46904C19.2281 2.46904 21.2839 4.43681 21.2839 6.99491V17.2273C22.9286 17.0305 24.5732 16.8338 26.2179 16.8338C27.8626 16.8338 29.5072 17.0305 30.9463 17.0305V6.99491C30.9463 4.43681 33.0021 2.46904 35.6747 2.46904C38.5528 2.46904 40.8143 5.02714 40.1975 7.78202L38.1417 18.6048C44.9259 20.9661 49.4487 25.2952 49.4487 30.2146C49.4487 37.6921 39.1696 43.7922 26.4235 43.7922C13.6774 43.7922 3.39825 37.6921 3.39825 30.2146C3.39825 25.2952 7.92107 20.9661 14.4997 18.6048L12.0327 7.78202Z" fill="#D1884F"/>
<path d="M19.8449 29.4275C19.8449 31.3953 18.6114 33.1662 17.3779 33.1662C16.1444 33.1662 14.9109 31.592 14.9109 29.4275C14.9109 27.4597 16.1444 25.6887 17.3779 25.6887C18.6114 25.6887 19.8449 27.2629 19.8449 29.4275Z" fill="#633001"/>
<path d="M37.525 29.4275C37.525 31.3953 36.2915 33.1662 35.058 33.1662C33.6189 33.1662 32.591 31.592 32.591 29.4275C32.591 27.4597 33.8245 25.6887 35.058 25.6887C36.2915 25.6887 37.525 27.2629 37.525 29.4275Z" fill="#633001"/>
</svg>
