<svg width="268" height="34" viewBox="0 0 268 34" fill="none" xmlns="http://www.w3.org/2000/svg">
<path d="M2.45627 26.2824C1.63395 26.2824 1.22278 26.0857 0.811618 25.8889C0.606036 25.4953 0.400452 25.1018 0.400452 24.5115V2.47242C0.400452 1.88209 0.606036 1.29177 0.811618 1.09499C1.22278 0.701437 1.63395 0.504654 2.45627 0.504654H12.1186C15.8191 0.504654 18.4917 1.29177 20.3419 2.66921C21.9866 4.24342 23.0145 6.40796 23.0145 9.35962C23.0145 12.3113 22.1922 14.4758 20.3419 16.05C18.6973 17.4275 15.8191 18.2146 12.1186 18.2146H8.41816V24.3147C8.41816 24.905 8.21258 25.4953 8.007 25.6921C7.59583 26.0857 7.18467 26.0857 6.36234 26.0857H2.45627V26.2824ZM11.5019 12.7048C12.5298 12.7048 13.3521 12.5081 13.9689 11.9177C14.5856 11.3274 14.7912 10.5403 14.7912 9.35962C14.7912 8.17896 14.5856 7.39185 13.9689 6.80152C13.3521 6.21119 12.5298 6.01442 11.5019 6.01442H8.41816V12.7048H11.5019Z" fill="white"/>
<path d="M32.2657 26.8728C29.7987 26.8728 27.7429 26.0857 26.3038 24.5115C24.8647 22.9373 24.0424 20.7727 24.0424 18.0178C24.0424 15.8533 24.4536 14.0823 25.4815 12.5081C26.5094 10.9338 27.9485 9.75317 29.7987 8.76929C31.649 7.98218 33.9104 7.39185 36.1718 7.39185C38.2276 7.39185 39.8723 7.58863 41.5169 7.98218C43.1616 8.37574 44.3951 8.96606 45.8342 9.75317V24.905C45.8342 25.2986 45.8342 25.6921 45.6286 25.8889C45.423 26.0857 45.0118 26.0857 44.6007 26.0857H40.489C40.2834 26.0857 39.8723 26.0857 39.8723 25.8889C39.6667 25.6921 39.6667 25.6921 39.4611 25.4954L38.8444 24.3147C38.022 25.1018 37.1997 25.6921 36.1718 26.0857C35.1439 26.676 33.7048 26.8728 32.2657 26.8728ZM35.1439 21.7566C36.1718 21.7566 36.9941 21.5598 37.6109 20.9695C38.2276 20.5759 38.4332 19.7888 38.4332 19.0017V13.0984C38.022 12.9016 37.1997 12.7048 36.583 12.7048C35.1439 12.7048 34.116 13.0984 33.2936 14.0823C32.4713 15.0662 32.0601 16.2468 32.0601 18.0178C32.0601 20.3791 33.0881 21.7566 35.1439 21.7566Z" fill="white"/>
<path d="M51.3849 26.2824C50.5625 26.2824 50.1514 26.0857 49.7402 25.8889C49.329 25.4953 49.329 25.1018 49.329 24.5115V9.16286C49.329 8.76931 49.329 8.37575 49.5346 8.17897C49.7402 7.9822 50.1514 7.9822 50.5625 7.9822H54.6742C55.0853 7.9822 55.2909 7.9822 55.2909 8.17897C55.4965 8.17897 55.4965 8.37575 55.7021 8.57253L55.9077 9.75319C56.73 8.96608 57.5523 8.57253 58.7858 8.17897C60.0193 7.78542 61.2528 7.58865 62.8975 7.58865C64.9533 7.58865 66.8035 8.17897 68.037 9.35963C69.2705 10.5403 70.0929 12.1145 70.0929 14.4758V24.5115C70.0929 25.1018 69.8873 25.6921 69.6817 25.8889C69.4761 26.2824 68.8594 26.2824 68.037 26.2824H64.131C63.3086 26.2824 62.8975 26.0857 62.4863 25.8889C62.0751 25.4953 62.0751 25.1018 62.0751 24.5115V14.8694C62.0751 14.0823 61.8696 13.4919 61.4584 13.2952C61.0472 12.9016 60.6361 12.7048 59.8137 12.7048C58.9914 12.7048 58.3747 12.9016 57.9635 13.2952C57.5523 13.6887 57.3467 14.2791 57.3467 14.8694V24.3147C57.3467 24.905 57.1412 25.4953 56.9356 25.6921C56.73 26.0857 56.1132 26.0857 55.2909 26.0857H51.3849V26.2824Z" fill="white"/>
<path d="M84.0724 26.8728C80.372 26.8728 77.4938 26.0857 75.438 24.3147C73.3822 22.7405 72.3542 20.3791 72.3542 17.2307C72.3542 15.2629 72.7654 13.6887 73.7933 12.1145C74.6156 10.7371 76.0547 9.55641 77.6994 8.7693C79.5496 7.9822 81.6055 7.58865 83.8669 7.58865C85.7171 7.58865 87.1562 7.78542 88.3897 8.17898C89.6232 8.57253 90.8567 8.96608 91.679 9.75319C91.8846 9.94997 92.0902 10.1467 92.0902 10.3435C92.0902 10.5403 91.8846 10.7371 91.679 11.1306L90.0343 13.8855C89.8288 14.2791 89.6232 14.4758 89.4176 14.4758C89.212 14.4758 89.0064 14.2791 88.5953 14.0823C87.9785 13.6887 87.1562 13.2952 86.5394 13.0984C85.9227 12.9016 85.1004 12.7048 84.278 12.7048C83.0445 12.7048 81.811 13.0984 80.9887 13.8855C80.1664 14.6726 79.7552 15.8533 79.7552 17.2307C79.7552 18.6082 80.1664 19.7888 80.9887 20.5759C81.811 21.363 82.839 21.7566 84.278 21.7566C85.1004 21.7566 85.9227 21.5598 86.5394 21.363C87.1562 21.1663 87.9785 20.7727 88.5953 20.3791C89.0064 20.1824 89.212 19.9856 89.4176 19.9856C89.6232 19.9856 89.8288 20.1824 90.0343 20.5759L91.8846 23.5276C92.0902 23.7244 92.0902 23.9211 92.0902 24.1179C92.0902 24.3147 91.8846 24.5115 91.679 24.7082C90.6511 25.2986 89.4176 25.8889 87.9785 26.2825C87.3618 26.676 85.9227 26.8728 84.0724 26.8728Z" fill="white"/>
<path d="M102.78 26.8728C100.313 26.8728 98.2576 26.0857 96.8186 24.5115C95.3795 22.9373 94.5572 20.7727 94.5572 18.0178C94.5572 15.8533 94.9683 14.0823 95.9962 12.5081C97.0241 10.9338 98.4632 9.75317 100.313 8.76929C102.164 7.98218 104.425 7.39185 106.687 7.39185C108.742 7.39185 110.387 7.58863 112.032 7.98218C113.676 8.37574 114.91 8.96606 116.349 9.75317V24.905C116.349 25.2986 116.349 25.6921 116.143 25.8889C115.938 26.0857 115.527 26.0857 115.115 26.0857H111.004C110.798 26.0857 110.387 26.0857 110.387 25.8889C110.181 25.6921 110.181 25.6921 109.976 25.4954L109.359 24.3147C108.537 25.1018 107.714 25.6921 106.687 26.0857C105.659 26.676 104.425 26.8728 102.78 26.8728ZM105.864 21.7566C106.892 21.7566 107.714 21.5598 108.331 20.9695C108.948 20.5759 109.154 19.7888 109.154 19.0017V13.0984C108.742 12.9016 107.92 12.7048 107.303 12.7048C105.864 12.7048 104.836 13.0984 104.014 14.0823C103.192 15.0662 102.78 16.2468 102.78 18.0178C102.575 20.3791 103.603 21.7566 105.864 21.7566Z" fill="white"/>
<path d="M141.43 24.905C141.636 25.1018 141.636 25.2986 141.636 25.4953C141.636 25.6921 141.636 25.8889 141.43 26.0857C141.224 26.2824 141.019 26.2824 140.813 26.2824H134.646C134.235 26.2824 134.029 26.2824 133.823 26.2824C133.618 26.2824 133.412 26.0857 133.207 25.8889L127.862 18.8049V24.3147C127.862 24.905 127.656 25.4953 127.45 25.6921C127.039 26.0857 126.628 26.0857 125.806 26.0857H121.9C121.077 26.0857 120.666 25.8889 120.255 25.6921C120.049 25.2986 119.844 24.905 119.844 24.3147V2.47242C119.844 1.88209 120.049 1.29177 120.255 1.09499C120.666 0.701437 121.077 0.504654 121.9 0.504654H125.806C126.628 0.504654 127.039 0.701437 127.45 1.09499C127.862 1.48855 127.862 1.88209 127.862 2.47242V15.0662L133.001 8.57252C133.207 8.37574 133.412 8.17896 133.618 8.17896C133.823 8.17896 134.029 7.98219 134.44 7.98219H140.608C140.813 7.98219 141.019 7.98218 141.224 8.17896C141.43 8.37574 141.43 8.57251 141.43 8.76929C141.43 8.96607 141.43 9.16284 141.224 9.35962L134.44 16.8372L141.43 24.905Z" fill="white"/>
<path d="M154.176 26.8728C151.915 26.8728 150.064 26.4792 148.214 25.8889C146.57 25.1018 145.13 24.1179 144.103 22.7405C143.075 21.363 142.663 19.592 142.663 17.6243C142.663 14.4758 143.691 11.9177 145.542 10.3435C147.392 8.57251 150.27 7.78541 153.765 7.78541C157.26 7.78541 159.932 8.57251 161.577 10.3435C163.427 11.9177 164.25 14.2791 164.25 17.2307C164.25 18.4114 163.633 19.1985 162.605 19.1985H150.27C150.27 20.3791 150.681 21.1663 151.503 21.7566C152.326 22.3469 153.765 22.5437 155.41 22.5437C156.437 22.5437 157.465 22.5437 158.082 22.3469C158.904 22.1501 159.521 21.7566 160.344 21.5598C160.755 21.363 160.96 21.363 160.96 21.363C161.166 21.363 161.371 21.5598 161.577 21.7566L163.016 24.1179C163.222 24.3147 163.222 24.5115 163.222 24.7082C163.222 24.905 163.016 25.1018 162.811 25.2986C161.783 25.8889 160.549 26.4792 159.11 26.8728C157.465 26.676 156.026 26.8728 154.176 26.8728ZM157.26 15.0662C157.26 14.0823 157.054 13.2952 156.437 12.9016C155.821 12.3113 154.998 12.1145 153.765 12.1145C152.531 12.1145 151.709 12.3113 151.092 12.9016C150.476 13.4919 150.27 14.0823 150.27 15.0662H157.26Z" fill="white"/>
<path d="M178.024 26.8728C175.762 26.8728 173.706 26.676 171.651 26.2824C169.595 25.8889 168.156 25.1018 166.922 24.3147C166.511 24.1179 166.305 23.7244 166.305 23.5276C166.305 23.3308 166.305 23.134 166.511 22.9372L168.361 19.9856C168.567 19.592 168.772 19.592 168.978 19.592C169.184 19.592 169.389 19.592 169.595 19.7888C170.623 20.3791 171.651 20.7727 172.884 21.1663C174.118 21.5598 175.351 21.7566 176.585 21.7566C177.818 21.7566 178.64 21.5598 179.257 21.1663C179.874 20.7727 180.079 20.1824 180.079 19.3953C180.079 18.6082 179.668 18.0178 179.052 17.6243C178.435 17.2307 177.201 16.6404 175.351 16.05C172.678 15.0662 170.623 14.0823 169.184 12.9016C167.744 11.721 166.922 9.94996 166.922 7.98219C166.922 5.42409 167.95 3.65309 169.8 2.27565C171.651 0.898215 174.118 0.307884 177.201 0.307884C179.463 0.307884 181.313 0.50466 182.752 0.898214C184.397 1.29177 185.63 1.8821 186.658 2.47243C187.069 2.86598 187.275 3.06276 187.275 3.45631C187.275 3.65309 187.275 3.84987 187.069 4.04665L185.219 6.99831C185.013 7.39186 184.808 7.39186 184.602 7.39186C184.397 7.39186 184.191 7.39186 183.986 7.19508C182.546 6.2112 180.696 5.81764 178.435 5.81764C177.201 5.81764 176.379 6.01442 175.762 6.40797C175.145 6.80152 174.94 7.39186 174.94 8.17897C174.94 8.7693 175.145 9.16285 175.351 9.55641C175.762 9.94996 176.173 10.1467 176.585 10.5403C177.201 10.7371 178.024 11.1306 179.052 11.5242L179.874 11.721C181.724 12.5081 183.369 13.0984 184.397 13.8855C185.63 14.4758 186.453 15.4597 187.069 16.4436C187.686 17.4275 187.892 18.6082 187.892 19.9856C187.892 22.1501 187.069 24.1179 185.219 25.2986C183.985 26.0857 181.313 26.8728 178.024 26.8728Z" fill="white"/>
<path d="M196.732 26.2824C196.32 26.2824 196.115 26.2824 195.909 26.0857C195.704 25.8889 195.498 25.6921 195.498 25.2986L190.359 8.96607C190.359 8.76929 190.359 8.76929 190.359 8.57251C190.359 8.17896 190.564 7.98219 191.181 7.98219H196.32C196.732 7.98219 196.937 7.98218 197.143 8.17896C197.348 8.37574 197.348 8.37573 197.554 8.76929L199.61 17.4275L202.282 10.5403C202.488 10.1467 202.488 9.94996 202.693 9.94996C202.899 9.75318 203.105 9.75317 203.516 9.75317H205.983C206.394 9.75317 206.6 9.75318 206.805 9.94996C207.011 10.1467 207.011 10.3435 207.216 10.5403L209.889 17.4275L212.15 8.76929C212.15 8.57251 212.356 8.37574 212.561 8.17896C212.767 7.98218 212.973 7.98219 213.178 7.98219H218.523C219.14 7.98219 219.346 8.17896 219.346 8.57251C219.346 8.57251 219.346 8.76929 219.346 8.96607L214.206 25.2986C214.001 25.6921 214.001 25.8889 213.795 26.0857C213.589 26.2824 213.384 26.2824 212.973 26.2824H209.067C208.655 26.2824 208.45 26.2824 208.244 26.0857C208.039 25.8889 207.833 25.6921 207.833 25.2986L205.161 18.4114L202.488 25.2986C202.282 25.6921 202.282 25.8889 202.077 26.0857C201.871 26.2824 201.666 26.2824 201.254 26.2824H196.732Z" fill="white"/>
<path d="M228.802 26.8728C226.335 26.8728 224.28 26.0857 222.841 24.5115C221.401 22.9373 220.579 20.7727 220.579 18.0178C220.579 15.8533 220.99 14.0823 222.018 12.5081C223.046 10.9338 224.485 9.75317 226.335 8.76929C228.186 7.98218 230.447 7.39185 232.709 7.39185C234.764 7.39185 236.409 7.58863 238.054 7.98218C239.698 8.37574 240.932 8.96606 242.371 9.75317V24.905C242.371 25.2986 242.371 25.6921 242.165 25.8889C241.96 26.0857 241.549 26.0857 241.137 26.0857H237.026C236.82 26.0857 236.615 26.0857 236.409 25.8889C236.203 25.6921 236.203 25.6921 235.998 25.4954L235.381 24.3147C234.559 25.1018 233.736 25.6921 232.709 26.0857C231.681 26.676 230.447 26.8728 228.802 26.8728ZM231.886 21.7566C232.914 21.7566 233.736 21.5598 234.353 20.9695C234.97 20.5759 235.176 19.7888 235.176 19.0017V13.0984C234.764 12.9016 233.942 12.7048 233.325 12.7048C231.886 12.7048 230.858 13.0984 230.036 14.0823C229.214 15.0662 228.802 16.2468 228.802 18.0178C228.597 20.3791 229.625 21.7566 231.886 21.7566Z" fill="white"/>
<path d="M247.922 33.9567C247.099 33.9567 246.688 33.76 246.277 33.5632C246.071 33.1696 245.866 32.7761 245.866 32.1857V10.5403C247.099 9.75318 248.538 8.96607 250.389 8.57252C252.239 7.98219 254.089 7.78541 255.939 7.78541C263.957 7.78541 267.863 10.9338 267.863 17.4275C267.863 20.3791 267.041 22.7405 265.396 24.5115C263.751 26.2824 261.284 27.0695 258.201 27.0695C257.378 27.0695 256.556 26.8728 255.734 26.676C254.911 26.4792 254.295 26.2824 253.678 25.8889V32.1857C253.678 32.7761 253.472 33.3664 253.267 33.5632C252.856 33.9567 252.444 33.9567 251.622 33.9567H247.922ZM256.556 21.7566C257.79 21.7566 258.612 21.363 259.023 20.5759C259.64 19.7888 259.845 18.6081 259.845 17.2307C259.845 15.6565 259.434 14.4758 258.817 13.6887C258.201 13.0984 257.173 12.7048 255.734 12.7048C254.911 12.7048 254.089 12.9016 253.678 13.0984V19.0017C253.678 19.7888 253.884 20.5759 254.5 20.9695C254.911 21.5598 255.734 21.7566 256.556 21.7566Z" fill="white"/>
</svg>
